<svg xmlns="http://www.w3.org/2000/svg" id="Layer_1" data-name="Layer 1" viewBox="0 0 657.06 568.51">
  <defs>
    <clipPath id="clip-path">
      <path fill="none" d="M.21.05H657.1v568.01H.21z"/>
    </clipPath>
    <style>
      .cls-3,.cls-4{fill-opacity:.07;stroke:#000;stroke-miterlimit:10;stroke-opacity:.07;stroke-width:.04px;fill-rule:evenodd}.cls-4{fill:#fff;fill-opacity:.1}
    </style>
  </defs>
  <g clip-path="url(#clip-path)">
    <path d="M589.55 185.75a112.13 112.13 0 0 0-5.67-60.23c-7.68-20.43-16.55-41.69-39.36-60.11-23.41-18.77-63.71-38.26-98.52-49.36C410.6 4.83 375.26.58 335 .11c-41.13-.59-90.3 1.42-130.61 13.34-40.19 12.17-82 35.43-108.27 58C69.72 93.4 54 119.26 47.5 144.89c-6.5 25.39-4 50.89 8.75 77.82-1 10-5.55 15.59-14.3 17.12-9.22 1.06-32.27-11-38.53-8.74s-2.6 17.48 1.77 22.56c4.14 4.72 12.17 6.49 23.64 5.78-8.39 4.61-12.53 9.21-12.89 13.35s3.31 8 10.88 11.57L4.6 314.94l2 16.3a100.36 100.36 0 0 1 22.46-.48A147 147 0 0 1 54 335.24c-6.5 3.43-9.45 9.34-9.33 17.24.35 7.8 3.19 18.08 10.28 30.35-5 23.5-5.2 43.94.59 61.3 5.44 17.24 9 25.27 32.51 42.27 23.4 16.65 65.48 43 107.08 57.16 41.25 13.7 86.52 27.75 139.47 24.44 52.72-4.25 133.45-21.61 174.23-47.12 39.95-25.62 61.93-60.46 65.95-105.44l16.9-20.79c3.78-13 6.15-23.86 6.15-33.54s-1.66-17.48-5.55-24a185.89 185.89 0 0 0 .7-23.74c-.23-9.68-1.3-20.07-2.71-32.59a60.07 60.07 0 0 1 21.15 4.37c7.56 2.72 15.37 14.64 23.41 12 7.91-3 21.86-15.46 22.22-29.4-.36-14.52-12.06-42-23.29-55.74-11.46-13.75-25.76-22.37-44.21-26.26Z" class="cls-3"/>
    <path d="M580.45 195.43C574.54 222 557.64 242.9 528.33 260c-29.78 16.77-77 29-123.75 35-47.4 5.2-107.92 2.6-156.5-2.36-48.81-5.31-98.69-12.05-131.79-28-33.21-16.3-56.73-41.8-64.18-68.26-7.09-26.92-.47-63.06 20.33-90.69C93 77.46 137.1 47.82 173.74 31.29s79.78-19.37 115.83-22.56c35.22-3.54 62.53-2.13 95.15 2.95C417.22 16.29 454 23.26 484 38.49s61.58 37.08 78.13 63.77c15.96 26.57 23.87 66.13 18.32 93.17Z" class="cls-4"/>
    <path d="M590.61 192c11.24 2.48 21.64 8.63 30.74 18.43s20.21 26.33 23.75 39.57c2.84 12.75-.94 31.88-5 37.31-4 5-10.17-2.36-19.86-5.55-10.63-3.66-26.83-10.39-40.9-13.81a231.57 231.57 0 0 0-42.31-6.38c10.64-2.95 20.45-9.8 29.43-21.49s16.95-27.53 24.15-48.08ZM502.2 335.6c-10 3.07-18.08 11.57-24.58 25.51s-11.23 32.47-14.3 57c-1.89-4.37-9.45-10.63-24.47-18.31s-36.17-17.24-64.3-28.22a15.57 15.57 0 0 1 11.59-8.38c5-1.19 13.47 4.84 18.68 3.07 5.19-2.13 8.62-6 11.7-13.46 4.72 5.31 9.8 7.55 14.77 6.72s10.4-11.81 15.48-12c4.73-.59 8.63 2.48 12.18 9.21q3.72-18.24 14.54-23.38c7.32-3.78 16.42-2.6 28.71 2.24Z" class="cls-4"/>
    <path d="M372.07 374c10.87 4.37 20.45 8.26 29.66 12.16 8.75 3.55 14.43 5.2 24.7 10.86s22.35 13 36.76 22.44l-1.53 12.4c-14.54-10.51-28.72-19.72-44.32-27.63a344.52 344.52 0 0 0-48.11-20.31ZM9.56 313.87l20.8-23.14c9 6.49 16 9.92 22.23 10.74 5.79.35 9.22-7.32 13.94-7.08 4.26-.12 8.16 8.74 13.6 7.91 5.2-1.3 15.36-15.35 19.14-14.41 3.67.71 4.73 6.85 3.2 18.89 2.36 4.61 3.9 7.8 4.6 11.34a13.22 13.22 0 0 1-.23 7.56q-18.27-6.37-42.2-8.86a391.08 391.08 0 0 0-53.9-1.65Z" class="cls-4"/>
    <path d="M110.5 330.76c-8.86-3.9-21.27-6.37-38.53-8.74s-38.06-3.54-63.71-4.48l2.25 7.55c9.22.59 19 1.89 29.9 3.43 10.64 1.42 22.69 3.31 34.87 6.14a363.31 363.31 0 0 1 37.23 9.92c-.59-4.58-1.3-9.21-2.01-13.82ZM109.79 273.25c-1.54 9.45-1.3 19 .24 30 1.53 10.52 4.37 23.5 9 34 4.37 10.15 5.2 20.66 18 26.92s38.88 19.84 57.32 9.21c18.08-11.57 35-36.13 51.18-75.93-19.27-.59-39.6-3.07-62.41-7s-46.97-9.88-73.33-17.2Z" class="cls-4"/>
    <path d="M62.63 338a187.49 187.49 0 0 1 28.72 4.73 157.35 157.35 0 0 1 26 8.27c1.77 7.55 5.67 13.81 13.12 19.24 7 5.2 19.74 9.69 29.66 12.17 9.34 1.89 18.8 5 28.84.94 10.41-4.25 20.45-12.52 32-25.27a135.74 135.74 0 0 0 23.87-.59 173 173 0 0 0 25.23-5.49c-3.31 8.38-1.66 14.28 4.49 16.41 6.38 2 16.67 1.54 32.62-2.71l-3.31 27.39c-17.61 9.8-38.29 16.42-62.05 19.37-24.35 3.19-51.3 10.63-81.32-1.3-30.26-12.62-62.29-36.59-97.87-73.16ZM334.12 382.82c7.56 9.1 19.14 16.06 35.69 22.33 16.55 5.9 36.64 10.15 62.17 13.22-15.13-7.08-28.72-12.75-40.78-18.77-12.29-5.91-22.81-11.11-32-16.06l-14.45-20.44c-3.55 6.5-7.09 13.11-10.63 19.72Z" class="cls-4"/>
    <path d="M369 351.43c-4.84-16.77-9.68-33.66-14.65-50.54-25 1.17-45.51 1.76-62.76 1.76-17.14-.23-30.61-1.06-39.95-2.48-11 19.25-17.85 33.07-20.09 41.92-2.37 8.51.82 8.86 5.91 10.17 4.84 1.05 13.94-1.19 22.69-3.08a210.92 210.92 0 0 0 26.59-9.09c-7.68 7.8-11.46 13.34-11.82 17.12-.35 3.43 3.08 4.72 9.81 5.32 6.15.59 15.37-.12 27.66-1.66-1.89 10.63-1.3 18.31.48 22.56 2.12 4.37 6.5 8.5 11.22 2.83 4.38-6.37 9.23-19.13 15-39.56 11.22 14.64 19.14 22.56 24.23 23.26 4.85.71 6.74-5.31 5.68-18.53ZM474.91 406c7.68-2.12 16.54-5.9 26.59-10.39 10.17-4.72 20.8-10.63 33.21-17.71-4.61-17.83-8.63-28.23-11.58-31.64-3.19-3.67-3.9 12.16-6.62 11.09-3-1.06-6.5-7.2-10.64-17.94a65.36 65.36 0 0 0-22.22 26.92c-5.09 10.96-8.15 24.19-8.74 39.67ZM585 290.61l-18.14 18.19q.89 14.86 4.25 25.15c2.13 6.85 4.73 11.81 8.28 15.35l9.1-11c-1.18-15.8-2.36-31.75-3.49-47.69ZM571.7 354c-1.77-5.31-5.19-7.91-9.8-7.79-5.2-.23-16.43 4.14-19 8.14-2.49 3.78-1 9 4.6 15.12 6-2.84 11.12-5.91 15.26-8.27a48.49 48.49 0 0 0 8.94-7.2Z" class="cls-4"/>
    <path d="M55.06 340.32c-5.79.12-7.21 5.32-4.25 16.06s11 32.48 21 47c9.45 13.7 12.17 21 36.4 36.14 24.35 14.88 60.87 41.33 107.33 53.37s116.89 23.5 167.12 17.83c49.53-6.26 93.73-33.53 128.13-53.61 33.92-20.43 58.38-41.8 74.7-66.36 5.8-21.49 8-33.77 6.27-38.62s-6.51 3.9-16.55 10.75c-10.52 6.73-28 20.19-44.8 29.88-17.14 9.44-35.34 17.59-55.91 25.74l-8.15 22.32-27.18-14.64c-10.52 2.47-24.83 1.17-42.44-3.9-18.08-5.32-39-14.17-64.18-27A294.26 294.26 0 0 1 263 418.15c-25.18 4.83-54.25 10.27-79.07 6.25-25.42-4.84-48.7-18.18-70.33-32.23a275.39 275.39 0 0 1-58.54-51.85Z" class="cls-4"/>
    <path d="M213.45 441.53c1.89 2 69.38 17.12 105.79 18.43 36.05.46 95.74-9.58 109.33-12.89 13-3.42-10.05-6.13-29.9-5.9-20.21 0-58.27 7.09-89.12 7.21-31.44-.24-97.55-8.74-96.1-6.85Z" class="cls-3"/>
    <path d="M58.26 398c12.65 18.41 29.31 35.19 50.94 51.6 21.16 16.18 46.69 33.3 77.54 45 31.32 11.21 68.2 18.42 107 22.08 38.18 3.66 84.15 5.55 120.21-1.17 35.81-7.33 66.54-25.4 92.66-41 25.65-15.59 45.39-32.72 60.52-51.85 1.54 14.88-3.55 30-15.25 45.82-12.17 15.71-31.67 34.84-55.31 48.3-24 13.11-50.13 24.21-86.17 31.06-36.76 6.62-85.46 13.22-129.19 8.5-43.62-5.31-96-23.37-130.25-39.2-34.64-16.42-58.87-36-74.59-56.1-15.51-20.23-21.54-40.78-18.11-63.04ZM363 304.9c4.14 16.65 8.74 29.17 13.83 38s10.52 11.82 15.83 14.17c5.09 1.89 10.18 0 13.84-2 3.07-2.37 4.84-5.91 5.32-11.1 5.55 3.9 10.51 6 14.89 5.43 3.9-.94 5.2-7.09 10.28-8.38s11.46-1.07 20 .59c1.78-11.22 6.15-17.84 14.43-20.79s26.24-.23 33.68 3.55c6.86 3.77 4.85 15.35 8.16 17.83 2.6 1.77 6-11.34 10.28-6 4.14 5.08 12.53 32.95 15.13 36.73 2.13 3.43-1.18-9.33-.83-15-.12-6.14-.71-16.88 1.89-20 3-3.07 8.75.83 13.72 1.66 4.48.12 8.51.59 12.52.47-4.49-8.15-7.09-16.18-6.86-22.79-.23-7 2.37-11.93 6.86-18.54 4.25-7 10.76-13.93 19.5-21.84l-53.54-9.21c-11.53 6.32-27.01 12.9-46.93 18.57-20.57 5.78-52.72 13.22-73.17 16.41s-36.57 3.77-48.83 2.24ZM63.58 228c1.18 7.21-1.07 11.69-5.44 14.76-5 2.6-14.18 2.13-22.57 1.77-8.87-.82-25.54-7.2-28.61-5.9-2.83 1.18 5.2 9.57 10.88 12.87C23 254.59 30.25 255.65 39 256c-6.73 7.56-9.57 14.29-9.45 19.72.35 5.43 5.79 10.75 10.87 12.75 4.73 1.42 11.82-2.24 17.61-1.89 5.2.48 7 6.62 14.9 4.26 7.68-3.08 17.61-10.28 30.73-21.61-4.85-1.78-10.4-6.26-17.14-13A263 263 0 0 1 63.58 228Z" class="cls-4"/>
    <path d="M148.44 289.55c-.47-.95-5.67-1.89-6-1.42s1 2.72 2.37 3.43c.8 0 3.99-1.42 3.63-2.01ZM150.45 301.36c-.47-.95-5.67-1.89-6-1.42s1 2.71 2.37 3.43c.79 0 3.99-1.37 3.63-2.01ZM150.93 324.74c-.48-.95-5.68-1.89-6-1.42s.94 2.72 2.36 3.42c.8 0 3.99-1.41 3.64-2ZM149.51 313.17c-.48-.95-5.68-1.89-6-1.43s.94 2.72 2.36 3.43c.8 0 3.99-1.41 3.64-2ZM154.47 338.2c-.47-.94-5.67-1.89-6-1.42s.95 2.72 2.37 3.43c.79 0 3.99-1.42 3.63-2.01ZM156.84 351.31c-.48-.94-5.68-1.89-6-1.42s.71 2.72 2.24 3.42c.68 0 4.23-1.41 3.76-2ZM171.49 354.5c.12-.95 5.32-1.42 6-.95.35.48-1.54 2.6-2.49 3.19-1.26-.12-4-1.74-3.51-2.24ZM175.86 340.44c.36-.94 5.44-1.29 6.15-1.05.47.35-1.77 2.83-2.6 3.3-1.3-.12-4.02-1.78-3.55-2.25ZM179.65 327.46c.12-.95 5.32-1.42 6-.95.35.47-1.54 2.6-2.49 3.19-1.27-.12-3.98-1.77-3.51-2.24ZM184.85 316.12c.12-.94 5.32-1.3 6-1.06.35.35-1.54 2.83-2.49 3.31-1.27-.13-3.98-1.78-3.51-2.25ZM187.92 303.83c.36-.94 5.44-1.29 6.15-1.05.47.46-1.78 2.59-2.6 3.18-1.31-.24-4.02-1.53-3.55-2.13ZM580.22 250.34c.59-.24 2-5.55 2-5.9-.35-.59-3.54.7-3.66 2-.35.71.83 4.14 1.66 3.9ZM595.23 256.72c.6-.24 2-5.55 2-5.91-.36-.59-3.55.71-3.67 2-.35.72.84 4.19 1.67 3.91ZM609.88 263.8c.59-.23 1.89-5.55 2.13-5.9-.36-.59-3.55.71-3.67 2-.58.71.84 4.1 1.54 3.9ZM627.85 268.41c.59-.36 2-5.32 2-5.79-.36-.82-3.55.71-3.66 1.89-.35.71.81 4.13 1.66 3.9ZM621.23 246.8c.59-.24 2-5.55 2-5.91-.36-.59-3.55.71-3.67 2-.34.72.84 4.11 1.67 3.91ZM609.88 232.86c.59-.35 2-5.31 2-5.78-.35-.83-3.55.71-3.66 1.89-.35.71.83 4.13 1.66 3.89ZM592.87 222c.59-.24 2-5.55 2-5.91-.36-.59-3.55.71-3.67 2-.35.72.8 4.15 1.67 3.91ZM515.09 284.7c.71-.35 11 2.6 17.14 9.34 5.67 6.37 14.89 26.57 16.66 30.46 1.18 3.66-5.43-3.19-8.51-7.79-3.43-5.32-6.49-16.3-10.63-21.61-4.61-5.43-15.13-10.4-14.66-10.4ZM413 307.74c-1.42-.83-.12 9.2-3 13.69-3.42 4.37-13.94 12.28-14.17 13.23 0 .71 10.28-7.2 13.94-8.27 3.31-1.42 2.83.11 6.26 1.42 3.2 1.06 13.47 5.9 13.6 5.43-.36-.94-10.64-4.72-13.48-9.09S413.79 308 413 307.74ZM312.62 310.8c-.95 4.85-1.89 9.33-2.84 13.7s2.6 8.62-1.18 13.22c-4 4.73-22.69 14.3-22.22 14.89.35.23 18.2-11.46 23.28-10.28s5.44 17.71 6.5 17.36-3.42-9.92 3.43-15.94a29.62 29.62 0 0 1 15.25-6.85c-7.09.35-12-1.42-15.84-5.79s-5.91-11.11-6.38-20.31ZM162.86 160.36a13.48 13.48 0 0 0-7 2.95c-2.72 1.89-6.86 5.31-7.33 8.38-.35 2.84 2.84 7.09 5.44 7.8 2 0 5.55-3.07 7.92-6 2.13-3.42 5.2-10.39 5.55-12.63.15-2.51-2.92-.98-4.58-.5Z" class="cls-3"/>
    <path d="M161.56 162.6c-1.77.35-3.19.35-5.2 2.24s-6.26 4.61-6.38 7.21c-.59 2.36 2.36 5.19 4.26 5.78 1.41-.23 4.84-3 6.61-5.43 1.54-2.83 4-7.79 4.26-9.45 0-1.77-2.25-.82-3.55-.35Z" class="cls-4"/>
    <path d="M263.57 193.66a15.21 15.21 0 0 0 3.54 6.61c2.13 2.36 5.68 6.14 8.87 6.73 2.72.24 6.85-4.37 7.44-6.14-.23-2.71-3.54-5.31-6.73-7.32-3.78-2.24-10.76-4.49-13.12-4.49-2.01-.11-.95 2.49 0 4.61Z" class="cls-3"/>
    <path d="M265.93 194.72c.47 1.42.59 3.07 2.6 5 1.77 1.89 5.08 5.2 7.68 5.79 2.49.11 5.09-3 5.56-4.61-.36-2-3.43-4.72-6-6.26-2.84-1.77-8.39-3.54-9.81-3.42-1.68-.04-.62 1.78-.03 3.5Z" class="cls-4"/>
    <path d="M349.38 119.38a13.25 13.25 0 0 0-6.86 3c-2.6 1.77-7.21 5.43-7.44 8.27-.48 2.71 3.07 7.32 5.55 7.91 2.12 0 5.31-3.07 7.8-6 2.13-3.66 5.2-10.51 5.56-12.76.12-2.19-2.99-1.25-4.61-.42Z" class="cls-3"/>
    <path d="M348.19 121.51c-1.77.35-3.19.35-5.2 2.24s-6.26 4.6-6.38 7.2c-.47 2.25 2.13 5.43 4.14 5.91 1.77-.12 4.61-3.19 6.73-5.55a48.58 48.58 0 0 0 4.14-9.45c-.11-1.77-2-.86-3.43-.35Z" class="cls-4"/>
    <path d="M314.51 76.4c-1.42 1.53-2.13 3.89-2.6 7.08s-.71 8.74 1.18 11.1c1.89 2 7.33 2.6 9.46 1.3 1.89-1.42 1.3-6.38.94-9.92-1.06-4.13-4.13-11.1-5.55-12.63-1.78-1.89-2.48 1.41-3.43 3.07Z" class="cls-3"/>
    <path d="M315.22 78.88a8 8 0 0 0-1.89 5.31c-.59 2.6-.24 7.32 1.06 9.56 1.42 1.78 5.32 1.89 7.09.83 1.31-1.53.83-5.79.48-8.62-.95-3.42-3-8.27-4.14-9.45s-2.01.83-2.6 2.37Z" class="cls-4"/>
    <path d="M358.48 50.53c1.06.48 2.25 2.25 4.49 2.6 2 .24 5.79 1.3 7.69.47 1.65-.94 2.47-5.31 2-6.25-1.06-1.42-3.9-2-6.62-1.78-3 .36-8 1-9.34 2.25-1.29.71.35 1.77 1.78 2.71Z" class="cls-3"/>
    <path d="M360.14 50.3a8.61 8.61 0 0 0 3.42 1.89c1.66.47 5.09.94 6.62.47 1.07-.59 2.13-4.13 1.42-4.72-.94-1.07-3.78-1.54-5.79-1.42-2.37 0-5.91.71-7 1.65-.81.59.26 1.3 1.33 2.13Z" class="cls-4"/>
    <path d="M339 31.88a13.16 13.16 0 0 0-3.31-4c-2-1.53-5.09-3.66-7-3.19-2.12.24-4.25 3.31-4.13 5.08.23 1.3 2.72 3 5.55 4 2.37.59 7.8 1.65 9.46 1.29 1.3-.82-.12-1.89-.57-3.18Z" class="cls-3"/>
    <path d="M337.2 31.52c-.7-1.06-1.06-2.24-2.36-3.07-1.89-1.42-4.49-2.83-6-2.83-1.42.23-3.66 2.48-3.07 4 .35 1.06 2.6 2.48 4.84 3.31a27.33 27.33 0 0 0 7.1.94c.79-.46-.27-1.4-.51-2.35Z" class="cls-4"/>
    <path d="M289.57 37.66a16.35 16.35 0 0 0 .95-5.19c-.48-2.6-.48-6.14-1.9-7.44s-5.9-1.18-6.61.23c-1.19.95-.6 4.25.47 6.73a30 30 0 0 0 5.08 8.15c1.3.71 1.06-1.14 2.01-2.48Z" class="cls-3"/>
    <path d="M288.74 36a14.86 14.86 0 0 0 .83-3.78c-.35-1.89-.94-5.55-1.77-6.38-1.18-1.3-4.49-.82-5 .12-.71 1.06-.35 3.66.59 5.91.48 1.89 2.84 5 3.91 6 .62.26 1.09-.8 1.44-1.87Z" class="cls-4"/>
    <path d="M236.86 30.81a8.33 8.33 0 0 0 .7 5.08c.83 2 2.25 5.2 4.26 6.38 1.77.59 5.32-1.07 6.15-2.25.35-1.65-.95-4.37-2.61-6.25-1.65-2.48-6.26-5.55-7.44-6-1.54-.5-1.3 1.23-1.06 3.04Z" class="cls-3"/>
    <path d="M238 32a4.65 4.65 0 0 0 .59 3.78c.23 1.3 2.36 4.84 3.66 5.55 1.07.24 4.26-.47 4.61-1.65a9.46 9.46 0 0 0-2.36-5.43 22.35 22.35 0 0 0-5.68-4.49c-1.02-.6-1.14 1.05-.82 2.24Z" class="cls-4"/>
    <path d="M217.47 54c-.71-1.18-1.89-3.07-3.55-3.9-2.24-1.53-5.2-3.07-7.09-2.71-2.36.23-3.78 3.66-3.78 5.31.24 1.53 3.07 2.6 5.79 3.66a33.59 33.59 0 0 0 9.46.71c1.06-.75-.12-1.93-.83-3.07Z" class="cls-3"/>
    <path d="M215.81 53.6a8.77 8.77 0 0 0-2.72-2.83c-1.77-1.3-4.72-2.6-6.14-2.48s-3.55 2.72-2.84 4.13c.47 1.18 2.84 2.36 5.2 3.07a25.59 25.59 0 0 0 7.09.48c.83-.36-.11-1.78-.59-2.37Z" class="cls-4"/>
    <path d="M409.18 24.55a10.15 10.15 0 0 0-4.85-2.12c-2.47-.47-6.26-.95-7.68.35-1.77 1.07-2.36 5.2-1.3 6.5.83.94 4 1.3 6.86 1.06a40.64 40.64 0 0 0 9-3.31c1.17-1.03-1.21-1.89-2.03-2.48Z" class="cls-3"/>
    <path d="M407.41 24.91a6.08 6.08 0 0 0-3.54-1.54c-1.89-.35-5.33-.71-6.62.36a3.83 3.83 0 0 0-.95 4.84c.83.71 3.55.94 5.91.71A60.38 60.38 0 0 0 409 26.8c.66-.8-.76-1.3-1.59-1.89Z" class="cls-4"/>
    <path d="M432.83 43.21a19 19 0 0 0 1.89-4.84c.47-2.48.12-6.26-.6-7.68-1.29-1.65-5.43-2.12-6.49-.94-1.42.71-1.54 4-.83 6.73s2.25 7.2 3.66 8.86c.71.82 1.65-.95 2.37-2.13Z" class="cls-3"/>
    <path d="M432.35 41.56a23.85 23.85 0 0 0 1.42-3.66c-.24-1.77.47-5.67-.59-6.61-1.18-1.42-4-1.66-4.85-.71s-1.3 3.54-.47 5.9c.47 2.13 1.53 5.43 2.71 6.73.48.24 1.07-.47 1.78-1.65Z" class="cls-4"/>
    <path d="M461.66 43c0 1.06-.35 3.18.83 5.07a13.31 13.31 0 0 0 4.5 6.26c1.77.36 5.31-1.06 6.14-2.36.24-1.65-1.3-4.37-2.84-6.26-1.89-2.12-6.38-5.55-7.56-5.78-1.54-.5-1.3 1.27-1.07 3.07Z" class="cls-3"/>
    <path d="M463 44.16a4.71 4.71 0 0 0 .6 3.78c.47 1.41 2.36 4.6 3.89 5.43 1.07.35 4.26-.71 4.62-1.77 0-1.3-1.3-4-2.61-5.44-1.41-1.65-5-4.13-5.67-4.25-1.1-.58-1.22 1.09-.83 2.25Z" class="cls-4"/>
    <path d="M497.24 73.92c-1.3-1-2.72-2.13-4.73-2.25-2.12-.47-6.38-1.42-7.68-.12-1.89.83-2.6 5.08-1.65 6.38.94 1.06 3.66 1.54 6.73 1.42 2.49-.59 7.81-1.66 9.1-2.72.99-.94-.7-2.01-1.77-2.71Z" class="cls-3"/>
    <path d="M495.47 74.27a5.47 5.47 0 0 0-3.47-1.65 10.59 10.59 0 0 0-6.62-.12c-1.53.59-2.12 3.66-1.3 4.72.83.83 3.55 1.18 5.91 1.07 2-.71 5.79-1.07 6.85-2 .52-.72-.43-1.55-1.37-2.02Z" class="cls-4"/>
    <path d="M426.68 143.23a14.52 14.52 0 0 0-6.38-4c-3.43-1.06-8.51-2.72-11.11-1.3s-4.61 6.38-3.32 8.86c.95 1.89 5.33 3.07 9.47 3.07 4.13-.36 11.11-1.18 13.59-2.48 2-1.31-1.19-2.85-2.25-4.15Z" class="cls-3"/>
    <path d="M424.2 143.47a12.1 12.1 0 0 0-4.85-2.95c-2.72-1.18-7.56-1.89-9.57-1.18-2.49.71-3.31 5.07-2.49 6.73s5 2 8.4 2.36a43.37 43.37 0 0 0 10.16-1.89c1.15-1.3-.59-1.89-1.65-3.07Z" class="cls-4"/>
    <path d="M498.42 118.44c-1.89.35-4.84.7-7 2.83-2.72 1.89-6.86 5.31-7.33 8.38-.35 2.72 2.84 7.32 5.44 7.92 2 .23 5.55-3.31 7.92-6.14 2.13-3.43 5.2-10.4 5.55-12.64.15-2.13-2.92-1.18-4.58-.35Z" class="cls-3"/>
    <path d="M497.24 120.56c-1.77.35-3.19.35-5.2 2.24s-6.26 4.61-6.38 7.21c-.47 2.24 2.13 5.43 4.14 5.9 1.42-.12 4.84-3.19 6.62-5.55 1.54-2.83 4-7.79 4.26-9.45-.13-1.77-2.02-.82-3.44-.35Z" class="cls-4"/>
    <path d="M477.85 172.28a17.52 17.52 0 0 0 4.38 6.14c2.36 1.78 6.85 5.55 9.81 5.44 2.6-.48 6.26-5 6.38-7.09-.23-2.36-4.26-5.08-7.56-6.38-3.91-1.89-11.47-2.95-13.6-2.71-2.35.32-.35 2.48.59 4.6Z" class="cls-3"/>
    <path d="M480.34 173a8.69 8.69 0 0 0 3.19 4.61c1.89 1.53 5.91 4.49 8.39 4.72 2.13-.47 5-3.66 4.85-5.43-.35-2.24-4.26-4-6.74-5.31-2.95-1.42-8.63-2.25-10.16-2-1.87.33-.24 1.63.47 3.41Z" class="cls-4"/>
    <path d="M474.55 231.33a23.36 23.36 0 0 0 .71-7.44c-.48-3.19-1.89-9-3.78-10.51-2.37-1.54-8.28-1.18-9.46 1.06-1.3 1.65-.47 6.14 1.54 9.8a41.8 41.8 0 0 0 8.39 11c1.65 1.05 1.89-2.38 2.6-3.91Z" class="cls-3"/>
    <path d="M473.25 229.2c.12-1.41 1.06-3.42.59-5.55-.59-2.6-1.54-7.91-3.31-9.09-2.25-1.54-6.14-.95-7.21.83-1.06 1.53.12 5.43 1.66 8.5 1.29 2.83 4.61 7.08 6.26 8.27 1.18.7 1.41-1.66 2.01-2.96Z" class="cls-4"/>
    <path d="M391 203.58a14.52 14.52 0 0 0-6.26-4.14c-3.43-1.29-8.51-2.71-11.11-1.53s-4.49 6.38-3.43 8.86c.59 2.12 5.67 3.07 9.34 3.3 3.78 0 11.35-1.41 13.59-2.36 1.87-1.3-.97-2.83-2.13-4.13Z" class="cls-3"/>
    <path d="M388.5 203.81a8.71 8.71 0 0 0-4.72-3.07c-2.72-1.3-7.57-2.24-9.58-1.41-2.36.94-3.54 4.72-2.6 6.73.71 1.3 5 2.6 8.28 2.6 2.95-.36 8.51-.95 10.28-1.78 1.18-.94-.6-2.12-1.66-3.07Z" class="cls-4"/>
    <path d="M242.65 229.2a13.62 13.62 0 0 0-7 3c-2.72 1.88-6.85 5.31-7.33 8.38-.11 2.83 3 7.08 5.56 7.79 2.13 0 5.32-3.07 7.8-6 2.13-3.42 5.2-10.39 5.56-12.64.13-2.53-2.94-1-4.59-.53Z" class="cls-3"/>
    <path d="M241.46 231.45c-1.77-.12-3.19.59-5.2 2.12-2 1.77-6.26 4.61-6.38 7.21-.47 2.24 2.13 5.43 4.13 5.9 1.78-.24 4.61-3 6.74-5.43a49.49 49.49 0 0 0 4.14-9.57c-.12-1.41-2.01-1.06-3.43-.23Z" class="cls-4"/>
    <path d="M181 252.58c-1.3-1.65-3-4-5.44-5.19-2.95-1.89-8-3.9-10.64-3.31s-5.91 5.91-5 8.15c.59 2.24 4.73 3.66 8.75 4.72 3.66.59 11.46.59 13.82 0 1.88-.95-.6-2.83-1.49-4.37Z" class="cls-3"/>
    <path d="M178.46 252.35c-1.06-1.18-2.12-3.07-4.13-3.9-2.6-1.18-6.86-3.66-9.11-2.95-2.36.24-4.49 4.6-3.66 6.26.35 1.42 4.73 3.19 7.68 3.89 2.84.48 8.87.48 10.4 0 1.36-.82-.47-2.24-1.18-3.3Z" class="cls-4"/>
    <path d="M98.8 223.53a20.35 20.35 0 0 0 7.33 1.89c2.84.12 8.75-.59 10.87-2.12 1.89-2.25 1.89-8 .48-9.57-1.66-1.53-6.51-1.53-9.93 0-3.79 1.3-10.88 4.61-12.18 6.73-1.77 1.54 1.63 2.13 3.43 3.07Z" class="cls-3"/>
    <path d="M101.05 222.59a15.52 15.52 0 0 0 5.55 1.41c2.6-.12 7.45-.59 9.46-1.89 1.42-1.77 1.65-6.14.23-7.21s-5.79-.94-8.62.36c-3.31 1.06-8 3.19-9.11 5-1.41 1.03 1.07 1.5 2.49 2.33Z" class="cls-4"/>
    <path d="M82.73 173.58a17.38 17.38 0 0 0-3.79-6.58c-2.6-2.48-6.26-6.38-9.1-6.26-3.19-.24-7 4-7.21 6.38-.23 2.12 3.31 5 7 7.08 3.66 1.42 10.52 4.25 13.23 4 1.64-.6.69-2.61-.13-4.62Z" class="cls-3"/>
    <path d="M80.36 172.64c-.71-1.77-1.06-3.43-2.83-5-2.13-2-5.68-5.32-7.92-5.43-2.6 0-5.44 2.83-5.32 4.84s3.42 4 6.26 5.9a38.8 38.8 0 0 0 9.93 3.07c1.3-.31.35-2.08-.12-3.38Z" class="cls-4"/>
    <path d="M78.71 114.89a13.22 13.22 0 0 0-1.18 7.44c.23 3 .82 8.62 3.19 10.63 2 1.54 7.92 1.06 9.57-.47 1.18-1.77.24-6.73-1.06-9.92-1.66-4-6.39-9.92-7.8-11.34s-2.6 1.65-2.72 3.66Z" class="cls-3"/>
    <path d="M79.89 117.14a7.69 7.69 0 0 0-.83 5.55c0 2.59 1.07 7.32 2.72 9.21 1.66 1.41 6 .82 7.21-.47.83-1.54 0-5.91-1.18-8.51-1.3-3-4.61-7.79-5.79-8.62-1.54-1.3-1.66 1.3-2.13 2.84Z" class="cls-4"/>
    <path d="M123.26 97.53c-.7 1.89-.59 4.37.36 7.44.83 2.48 2.6 8.62 5.32 9.8 2.48 1.3 7.68-.7 9.22-2.36.94-2.36-.95-6.14-3-9.44-2.48-3.31-7.92-9-9.93-9.69-2.08-.94-1.84 2.01-1.97 4.25Z" class="cls-3"/>
    <path d="M124.92 99.42a9.1 9.1 0 0 0 .24 5.55c.59 2.25 2.6 7.21 4.61 8.51 1.89.94 6-.24 7-1.78.59-1.77-1.42-5.9-2.84-8.26-2-2.84-6.14-6.62-7.44-7.21-1.69-.94-1.49 1.66-1.57 3.19Z" class="cls-4"/>
    <path d="M204 86.43a8.25 8.25 0 0 0-4.73 2c-2.13 1.3-4.73 3.66-5.08 5.79-.36 1.89 2.12 4.72 3.78 5.31 1.77 0 3.43-2.12 5.44-4.13 1.18-2.48 3.66-7.09 3.78-8.74-.19-1.53-1.89-.66-3.19-.23Z" class="cls-3"/>
    <path d="M203.17 88a4.9 4.9 0 0 0-3.55 1.42c-1.53.94-4.25 3.54-4.49 5.07s1.54 3.66 3 4c1.06.12 3.19-2.36 4.61-3.78 1.41-1.89 2.36-5.43 2.83-6.49-.39-1.43-1.34-.61-2.4-.22Z" class="cls-4"/>
    <path d="M174.56 106.15a8.3 8.3 0 0 0-4.73 2c-2.12 1.3-4.72 3.66-5.08 5.79-.35 1.89 2.13 4.72 3.78 5.31 1.78 0 3.43-2.12 5.44-4.13 1.18-2.48 3.66-7.09 3.78-8.74-.23-1.53-1.89-.7-3.19-.23Z" class="cls-3"/>
    <path d="M173.74 107.69c-1.07.23-2.25.12-3.55 1.42-1.65.94-4 3.54-4.37 5.07-.59 1.42 1.42 3.66 2.84 4 1.06.12 3.19-2.36 4.6-3.78 1.42-2.13 2.37-5.55 2.84-6.61-.35-1.16-1.3-.45-2.36-.1Z" class="cls-4"/>
    <path d="M222.67 121.63a9.78 9.78 0 0 0 .12 5.19c.71 2.25 1.54 5.43 3.43 6.85 1.3.47 5.55 0 6.38-1.42a9.59 9.59 0 0 0-1.77-6.61c-1.78-2.48-5.2-6.26-6.62-6.85s-1.66 1.3-1.54 2.84Z" class="cls-3"/>
    <path d="M223.73 123a5.56 5.56 0 0 0 .12 3.9c.59 1.53 1.42 4.72 3 5.9 1.06.59 4.37-.12 4.84-1.18a11 11 0 0 0-1.77-5.67 25.73 25.73 0 0 0-5-5.08c-1.3-.78-1.07.99-1.19 2.13Z" class="cls-4"/>
    <path d="M287.09 151.5a8.47 8.47 0 0 0-4.73 2.13c-2.13 1.41-4.73 3.3-5.08 5.66-.36 1.78 2.12 5 3.78 5.44 1.3 0 3.66-2.13 5.32-4.14a48.58 48.58 0 0 0 3.9-8.74c-.28-1.41-1.89-1.06-3.19-.35Z" class="cls-3"/>
    <path d="M286.26 153c-1.06.23-2.24.11-3.54 1.53-1.54 1.06-4.26 3.19-4.5 5-.35 1.3 1.54 3.9 3 4.13 1.06.12 3.19-2.36 4.61-3.78 1.42-2.12 2.36-5.55 2.84-6.61-.4-1.42-1.34-.59-2.41-.27Z" class="cls-4"/>
    <path d="M283.9 99.66c-.36-1.42.12-3.43-.83-5.08-.83-2.36-3.07-5.67-4.49-6.26-2.13-.82-5.56 1.07-6.15 2.48-.35 1.42.59 3.9 2.84 6.14 1.42 1.89 6.26 5.2 7.68 5.79 1.3.12.71-1.54.95-3.07Z" class="cls-3"/>
    <path d="M282.72 98.48c-.36-1 0-2.36-.71-3.78-.83-1.65-2.72-5-3.9-5.43-1.42-.71-4.61.35-4.61 1.89-.36 1.18 1.18 3.42 2.71 5.31a25.3 25.3 0 0 0 5.68 4.25c.71.28.83-1.42.83-2.24Z" class="cls-4"/>
    <path d="M249.73 79.11c.24-1.42 1.31-3 1.31-5.08-.36-2.36-.24-6.37-1.54-7.55-1.42-1.54-5.91-1.3-6.62-.24-1.3.94-.83 4.13 0 6.85s3.31 7.08 4.73 8.38c.83.71 1.54-1.3 2.12-2.36Z" class="cls-3"/>
    <path d="M249 77.46a32.88 32.88 0 0 0 .94-3.78c-.35-1.89-.35-5.43-1.3-6.5-1.18-.94-4.49-1.41-5-.11-.83.7-.59 3.89.24 5.9.59 1.65 2.36 5.55 3.42 6.26.55.35 1.26-.71 1.7-1.77Z" class="cls-4"/>
    <path d="M166.41 66.36c-.59-1.66-.83-3.07-2.13-4.73-1.53-1.77-4.14-5-5.91-5-2-.23-5.44 2.13-5.32 3.9-.47 1.65 2 3.43 4.26 5.32 2.36 1.29 6.85 3.42 8.86 3.66 1.3-.08.48-2.21.24-3.15Z" class="cls-3"/>
    <path d="M164.87 65.53a11.72 11.72 0 0 0-1.65-3.53c-1.42-1.3-3.55-4.37-5-4.25-1.77-.36-4 1.53-4 2.95-.36 1.3 2.12 3 3.78 4.49s5.2 2.36 6.62 2.83c1.08-.25.25-1.54.25-2.49Z" class="cls-4"/>
    <path d="M405.64 70.25a10.49 10.49 0 0 0 1.77 5c1.3 1.89 3.08 4.61 5.32 5.44 2-.12 5-1.54 5.67-3.31.12-1.77-1.88-4.13-3.78-5.79a23.41 23.41 0 0 0-8.39-4.48c-1.65-.52-.95 1.61-.59 3.14Z" class="cls-3"/>
    <path d="M407.18 71.2a5.38 5.38 0 0 0 1.17 3.66c.95 1.42 3 4.25 4.73 4.84 1.31.47 3.78-1.77 4.26-2.6.24-1.65-2.13-3.42-3.43-4.84-2-1.53-5.2-3.42-6.38-3.42-1.42-.36-.47 1.16-.35 2.36Z" class="cls-4"/>
  </g>
</svg>
