<svg xmlns="http://www.w3.org/2000/svg" id="Red" viewBox="0 0 241.22 705">
  <defs>
    <style>
      .cls-1{fill:#171926}.cls-2{fill:#e73900}
    </style>
  </defs>
  <g id="redSauce">
    <path d="m232.89 151.85-220.95-1.46a3.48 3.48 0 0 0-3.38 3.55L5 695a3.47 3.47 0 0 0 3.34 3.59L229.28 700a3.47 3.47 0 0 0 3.38-3.54l3.56-541a3.47 3.47 0 0 0-3.33-3.61Z" class="cls-1"/>
    <path d="M229.29 705 8.31 703.54A8.49 8.49 0 0 1 0 694.91l3.56-541a8.49 8.49 0 0 1 8.37-8.52H12l220.94 1.46a8.3 8.3 0 0 1 6 2.65 8.64 8.64 0 0 1 2.3 6l-3.56 541a8.48 8.48 0 0 1-8.39 8.5ZM10 693.55 227.67 695l3.54-538.15-217.66-1.45Zm222.83-536.7Z" class="cls-2"/>
    <path d="m196.28 121-141.15-1a3.47 3.47 0 0 0-3.39 3.55l-.13 20.28a3.47 3.47 0 0 0 3.33 3.59l141.15.92a3.45 3.45 0 0 0 3.38-3.54l.14-20.27a3.47 3.47 0 0 0-3.33-3.53Z" class="cls-1"/>
    <path d="M196.12 152.37h-.07l-141.13-.92a7.49 7.49 0 0 1-7.31-7.62l.13-20.28a7.49 7.49 0 0 1 7.37-7.55l141.19 1a7.2 7.2 0 0 1 5.12 2.17 7.62 7.62 0 0 1 2.19 5.44l-.14 20.28a7.58 7.58 0 0 1-2.27 5.41 7.16 7.16 0 0 1-5.08 2.07Zm0-8Zm-140.5-.92 139.87.91.13-19.4L55.74 124Z" class="cls-2"/>
    <path d="m147.16 86.33-22.55-.09-22.54-.1 14-67.39c4.64-22.46 11.15-12.59 11.15-12.59s5.59-8.58 8.45 13.91 11.54 66.26 11.54 66.26Z" class="cls-1"/>
    <path d="m152 90.35-54.87-.23 15-72.18c2.35-11.4 5.55-16.89 10.37-17.82a7.07 7.07 0 0 1 4.89.87A6 6 0 0 1 131 .7c4.5 1 7.09 6.68 8.64 18.87 2.81 22.1 11.4 65.54 11.49 66Zm-45-8.19 35.32.15c-2.32-12-8.35-43.76-10.64-61.73a49.46 49.46 0 0 0-2.17-10.43L127.23 14l-3.4-5.67c-.75 1-2.33 3.73-3.88 11.21Z" class="cls-2"/>
    <path d="m173.23 90.25-105.07-.69a3.47 3.47 0 0 0-3.39 3.55l-.12 20.26A3.45 3.45 0 0 0 68 117l105.07.7a3.49 3.49 0 0 0 3.39-3.55l.13-20.27a3.46 3.46 0 0 0-3.36-3.63Z" class="cls-1"/>
    <path d="M173.07 121.66 68 121a7.29 7.29 0 0 1-5.27-2.33 7.65 7.65 0 0 1-2-5.28l.12-20.27a7.48 7.48 0 0 1 7.37-7.52l105.08.69a7.29 7.29 0 0 1 5.27 2.33 7.63 7.63 0 0 1 2 5.29l-.13 20.27a7.48 7.48 0 0 1-7.37 7.48ZM68.65 113l103.79.69.13-19.42-103.8-.68Z" class="cls-2"/>
  </g>
  <path d="M20.7 148.37c.27 7.67 3.19 15.45 4.79 24.23 2.55 14-17.68 27.1-3.93 42.58 6.59 7.43 19.65 9.13 23.32.66 6.51-15-8.58-31.58 1.15-40.53 7.47-6.9 19 4.72 18.11 13.74-1.93 12.52 7.61 21 17.31 12.68 5.54-4.78 8.74-15 7-22.93-2.12-6.15-2-10.63 3.68-11.11 10.82-.77 13.63 4.24 16.25 12.71 2.7 8.71 18.61 4.11 19.43-2.78 1.43-12-4.08-19.28 11.93-27.62" class="cls-2"/>
</svg>
