<svg id="Layer_1" data-name="Layer 1" xmlns="http://www.w3.org/2000/svg" viewBox="0 0 249.33 257.88"><defs><style>.cls-1{fill:#fff;}.cls-2{fill:#fcfbfa;}.cls-3{fill:#252526;}.cls-4{fill:#e0e0e0;}.cls-5{fill:#56555c;}</style></defs><path class="cls-1" d="M124.64,257.88a98,98,0,0,1-98-93.13v-.19A23.37,23.37,0,0,1,6.9,147.1C4.16,136.38.46,120.35,0,105A21.93,21.93,0,0,1,13,84.22c8-3.59,19.4-6.52,33.78-8.75,8.05-18.59,17.54-34.75,27.58-46.93C90,9.6,106.92,0,124.64,0s34.62,9.6,50.23,28.54c10,12.18,19.53,28.32,27.56,46.87,14.28,2.16,25.67,5.11,33.89,8.77a21.88,21.88,0,0,1,13,20.69c-.44,15.49-4.14,31.52-6.88,42.23a23.37,23.37,0,0,1-19.77,17.47v.18a98.12,98.12,0,0,1-98.07,93.12Z"/><path class="cls-2" d="M124.58,16.31c45.4,0,82.21,97.59,82.21,143a82.22,82.22,0,0,1-164.43,0C42.37,113.9,79.18,16.31,124.58,16.31Z"/><path class="cls-3" d="M228.83,95.07,195.29,106.9s5.19,15.78,5.24,15.9,33.41-4.3,33.41-4.3Zm-208.49,0L53.88,106.9s-5.19,15.78-5.24,15.9-33.41-4.3-33.41-4.3Z"/><path class="cls-4" d="M90.07,92.27a10.46,10.46,0,0,1,10.57,8.8,135.79,135.79,0,0,1,2.1,17.29,21.86,21.86,0,0,1-.44,4.84c-.42-4.18-1-8.16-1.65-11.62a10.46,10.46,0,0,0-10.57-8.8,286.16,286.16,0,0,0-37.67,2.86c1.18-3.67,2.45-7.35,3.81-11A286,286,0,0,1,90.07,92.27Zm116.57,63.39c-29.61-1.53-54.9-11-60.61-14.39-4.45-2.13-10.13-6.64-11.76-17.92-1.09,12.43,1.25,23.75,12.92,29.34.86.52,23.2,11.57,59.25,13.47q.28-3.39.29-6.85C206.72,158.13,206.69,156.91,206.64,155.66Zm-164,0c29.61-1.53,54.9-11,60.61-14.39,4.45-2.13,10.13-6.64,11.76-17.92,1.09,12.43-1.25,23.75-12.92,29.34-.86.52-23.2,11.57-59.25,13.47q-.29-3.39-.29-6.85C42.53,158.13,42.56,156.91,42.61,155.66ZM159,92.27a10.46,10.46,0,0,0-10.57,8.8,139.49,139.49,0,0,0-2.1,17.29,22.48,22.48,0,0,0,.44,4.84c.42-4.18,1-8.16,1.65-11.62a10.46,10.46,0,0,1,10.57-8.8,286,286,0,0,1,37.67,2.86c-1.18-3.67-2.45-7.35-3.81-11A285.89,285.89,0,0,0,159,92.27Z"/><path class="cls-5" d="M52.67,83.38c8.07-19.58,17.76-36.52,28-49,14-16.92,28.72-25.5,43.89-25.5s29.94,8.58,43.89,25.49c10.28,12.46,20,29.4,28,49l.39,1-1-.14c-2.85-.38-5.17-.65-8-1h-.35l-.14-.32c-9.08-21.2-24.58-48.89-44.61-60.46a36.24,36.24,0,0,0-18.18-5.28,36.27,36.27,0,0,0-18.18,5.28C86.4,34,70.94,61.56,61.79,82.88l-.14.32H61.3c-2.85.3-5.17.58-8,1l-1,.14Zm154.91,62c-2.23-.06-4.48-.15-6.69-.28h-.69l-.09-.69a257.56,257.56,0,0,0-12.7-51.38l-.4-1.31,1.35.18c2.54.34,5,.72,7.4,1.12l.49.08.16.47a256.41,256.41,0,0,1,12.07,50.88l.11,1Z"/><path class="cls-3" d="M200.25,105.93q-1.8-6.17-3.89-12.31l-.16-.47-.49-.08c-2.36-.4-4.85-.78-7.4-1.12l-1.3-.19.45,1.28q2.07,5.83,3.87,11.74c4.27.49,6.68.84,8.92,1.15Z"/><path class="cls-5" d="M41.29,144.14c1.82-15.3,6.11-33.37,12.07-50.88l.16-.47L54,92.7c2.36-.4,4.85-.78,7.4-1.12l1.35-.18-.45,1.28c-6.21,17.54-10.72,35.78-12.7,51.38l-.09.69h-.69c-2.22.13-4.47.22-6.69.28h-1Z"/><path class="cls-3" d="M54,92.7l-.49.08-.16.47c-1.39,4.09-2.69,8.22-3.89,12.33,4.17-.53,5.38-.47,8.87-.84,1.23-4,2.55-8.07,4-12.06l.45-1.28-1.35.18c-2.58.35-5.07.73-7.43,1.12Z"/><path class="cls-5" d="M124.58,248.91a89.65,89.65,0,0,1-83.41-56.78A90.78,90.78,0,0,1,35,155.64v-.56h.56c2.92-.07,4.92-.15,7-.26h.65v.65a81.39,81.39,0,0,0,140,60.24,80.45,80.45,0,0,0,17.15-26.86,81.58,81.58,0,0,0,5.43-33.37v-.65h.65c2.91.15,4.91.21,7,.26H214v.56a90.59,90.59,0,0,1-6,36.46,89.56,89.56,0,0,1-83.41,56.81Z"/><path class="cls-3" d="M43.5,166.17a89.51,89.51,0,0,1-.22-10.74v-.65h-.65c-2.1.11-4.1.19-7,.26h-.56v.56a96.75,96.75,0,0,0,.24,10.77h.27c2.7,0,5.34-.12,7.85-.24Zm170.6-11.09h-.56c-2.12,0-4.12-.11-7-.26h-.65v.65a85.86,85.86,0,0,1-.21,10.64l8.2.35a96.75,96.75,0,0,0,.24-10.77Z"/><path class="cls-3" d="M218.72,156.91a195.16,195.16,0,0,1-50.78-6.52,122.51,122.51,0,0,1-20.75-7.53l-.16-.12c-14-6.69-14.51-20.11-13.21-32.34.33-3.09-.8-7.18-4.06-9.35a9.25,9.25,0,0,0-10.26,0c-3.26,2.16-4.39,6.24-4.06,9.32,1.3,12.24.75,25.66-13.21,32.35l-.16.08a121.64,121.64,0,0,1-20.75,7.61,195.16,195.16,0,0,1-50.78,6.52h-.08a15.66,15.66,0,0,1-15-11.85C12.8,134.81,9.26,119.43,8.85,105a14.24,14.24,0,0,1,8.42-13.45C36.55,83,75.57,79.78,92.21,80a21.51,21.51,0,0,1,15.46,6.39,38.87,38.87,0,0,1,34,0A21.46,21.46,0,0,1,157,80c10-.15,53,1.71,75,11.5a14.17,14.17,0,0,1,8.42,13.39c-.41,14.46-4,29.92-6.57,40.17a15.66,15.66,0,0,1-15,11.85Zm-59.61-64a9.9,9.9,0,0,0-10,8.31,138.46,138.46,0,0,0-2.1,17.21c-.08,6.6,2.29,11.12,7,13.43,17.63,7.86,38.12,11.75,62.64,11.87a4.16,4.16,0,0,0,4-3.1c2.33-9.11,5.47-22.65,5.83-35.1a2.92,2.92,0,0,0-1.74-2.77c-16.73-7.52-52.57-10.09-65.63-9.89ZM24.42,102.74a2.92,2.92,0,0,0-1.74,2.77c.36,12.42,3.5,26,5.83,35.1a4.14,4.14,0,0,0,4,3.1c24.54-.12,45-4,62.69-11.88,4.72-2.3,7.08-6.83,7-13.45a136.07,136.07,0,0,0-2.11-17.19,9.9,9.9,0,0,0-10-8.31C82.48,92.76,43.36,94.3,24.42,102.74Z"/></svg>