<svg id="Layer_1" data-name="Layer 1" xmlns="http://www.w3.org/2000/svg" viewBox="0 0 1026.83 257.88"><defs><style>.cls-1{fill:#fff;}.cls-2{fill:#fcfbfa;}.cls-3{fill:#252526;}.cls-4{fill:#e0e0e0;}.cls-5{fill:#56555c;}.cls-6{fill:#fffffb;}</style></defs><path class="cls-1" d="M124.64,257.88a98,98,0,0,1-98-93.13v-.19A23.37,23.37,0,0,1,6.9,147.1C4.16,136.38.46,120.35,0,105A21.93,21.93,0,0,1,13,84.22c8-3.59,19.4-6.52,33.78-8.75,8.05-18.59,17.54-34.75,27.58-46.93C90,9.6,106.92,0,124.64,0s34.62,9.6,50.23,28.54c10,12.18,19.53,28.32,27.56,46.87,14.28,2.16,25.67,5.11,33.89,8.77a21.88,21.88,0,0,1,13,20.69c-.44,15.49-4.14,31.52-6.88,42.23a23.37,23.37,0,0,1-19.77,17.47v.18a98.12,98.12,0,0,1-98.07,93.12Z"/><path class="cls-2" d="M124.58,16.31c45.4,0,82.21,97.59,82.21,143a82.22,82.22,0,0,1-164.43,0C42.37,113.9,79.18,16.31,124.58,16.31Z"/><path class="cls-3" d="M228.83,95.07,195.29,106.9s5.19,15.78,5.24,15.9,33.41-4.3,33.41-4.3Zm-208.49,0L53.88,106.9s-5.19,15.78-5.24,15.9-33.41-4.3-33.41-4.3Z"/><path class="cls-4" d="M90.07,92.27a10.46,10.46,0,0,1,10.57,8.8,135.79,135.79,0,0,1,2.1,17.29,21.86,21.86,0,0,1-.44,4.84c-.42-4.18-1-8.16-1.65-11.62a10.46,10.46,0,0,0-10.57-8.8,286.16,286.16,0,0,0-37.67,2.86c1.18-3.67,2.45-7.35,3.81-11A286,286,0,0,1,90.07,92.27Zm116.57,63.39c-29.61-1.53-54.9-11-60.61-14.39-4.45-2.13-10.13-6.64-11.76-17.92-1.09,12.43,1.25,23.75,12.92,29.34.86.52,23.2,11.57,59.25,13.47q.28-3.39.29-6.85C206.72,158.13,206.69,156.91,206.64,155.66Zm-164,0c29.61-1.53,54.9-11,60.61-14.39,4.45-2.13,10.13-6.64,11.76-17.92,1.09,12.43-1.25,23.75-12.92,29.34-.86.52-23.2,11.57-59.25,13.47q-.29-3.39-.29-6.85C42.53,158.13,42.56,156.91,42.61,155.66ZM159,92.27a10.46,10.46,0,0,0-10.57,8.8,139.49,139.49,0,0,0-2.1,17.29,22.48,22.48,0,0,0,.44,4.84c.42-4.18,1-8.16,1.65-11.62a10.46,10.46,0,0,1,10.57-8.8,286,286,0,0,1,37.67,2.86c-1.18-3.67-2.45-7.35-3.81-11A285.89,285.89,0,0,0,159,92.27Z"/><path class="cls-5" d="M52.67,83.38c8.07-19.58,17.76-36.52,28-49,14-16.92,28.72-25.5,43.89-25.5s29.94,8.58,43.89,25.49c10.28,12.46,20,29.4,28,49l.39,1-1-.14c-2.85-.38-5.17-.65-8-1h-.35l-.14-.32c-9.08-21.2-24.58-48.89-44.61-60.46a36.24,36.24,0,0,0-18.18-5.28,36.27,36.27,0,0,0-18.18,5.28C86.4,34,70.94,61.56,61.79,82.88l-.14.32H61.3c-2.85.3-5.17.58-8,1l-1,.14Zm154.91,62c-2.23-.06-4.48-.15-6.69-.28h-.69l-.09-.69a257.56,257.56,0,0,0-12.7-51.38l-.4-1.31,1.35.18c2.54.34,5,.72,7.4,1.12l.49.08.16.47a256.41,256.41,0,0,1,12.07,50.88l.11,1Z"/><path class="cls-3" d="M200.25,105.93q-1.8-6.17-3.89-12.31l-.16-.47-.49-.08c-2.36-.4-4.85-.78-7.4-1.12l-1.3-.19.45,1.28q2.07,5.83,3.87,11.74c4.27.49,6.68.84,8.92,1.15Z"/><path class="cls-5" d="M41.29,144.14c1.82-15.3,6.11-33.37,12.07-50.88l.16-.47L54,92.7c2.36-.4,4.85-.78,7.4-1.12l1.35-.18-.45,1.28c-6.21,17.54-10.72,35.78-12.7,51.38l-.09.69h-.69c-2.22.13-4.47.22-6.69.28h-1Z"/><path class="cls-3" d="M54,92.7l-.49.08-.16.47c-1.39,4.09-2.69,8.22-3.89,12.33,4.17-.53,5.38-.47,8.87-.84,1.23-4,2.55-8.07,4-12.06l.45-1.28-1.35.18c-2.58.35-5.07.73-7.43,1.12Z"/><path class="cls-5" d="M124.58,248.91a89.65,89.65,0,0,1-83.41-56.78A90.78,90.78,0,0,1,35,155.64v-.56h.56c2.92-.07,4.92-.15,7-.26h.65v.65a81.39,81.39,0,0,0,140,60.24,80.45,80.45,0,0,0,17.15-26.86,81.58,81.58,0,0,0,5.43-33.37v-.65h.65c2.91.15,4.91.21,7,.26H214v.56a90.59,90.59,0,0,1-6,36.46,89.56,89.56,0,0,1-83.41,56.81Z"/><path class="cls-3" d="M43.5,166.17a89.51,89.51,0,0,1-.22-10.74v-.65h-.65c-2.1.11-4.1.19-7,.26h-.56v.56a96.75,96.75,0,0,0,.24,10.77h.27c2.7,0,5.34-.12,7.85-.24Zm170.6-11.09h-.56c-2.12,0-4.12-.11-7-.26h-.65v.65a85.86,85.86,0,0,1-.21,10.64l8.2.35a96.75,96.75,0,0,0,.24-10.77Z"/><path class="cls-3" d="M218.72,156.91a195.16,195.16,0,0,1-50.78-6.52,122.51,122.51,0,0,1-20.75-7.53l-.16-.12c-14-6.69-14.51-20.11-13.21-32.34.33-3.09-.8-7.18-4.06-9.35a9.25,9.25,0,0,0-10.26,0c-3.26,2.16-4.39,6.24-4.06,9.32,1.3,12.24.75,25.66-13.21,32.35l-.16.08a121.64,121.64,0,0,1-20.75,7.61,195.16,195.16,0,0,1-50.78,6.52h-.08a15.66,15.66,0,0,1-15-11.85C12.8,134.81,9.26,119.43,8.85,105a14.24,14.24,0,0,1,8.42-13.45C36.55,83,75.57,79.78,92.21,80a21.51,21.51,0,0,1,15.46,6.39,38.87,38.87,0,0,1,34,0A21.46,21.46,0,0,1,157,80c10-.15,53,1.71,75,11.5a14.17,14.17,0,0,1,8.42,13.39c-.41,14.46-4,29.92-6.57,40.17a15.66,15.66,0,0,1-15,11.85Zm-59.61-64a9.9,9.9,0,0,0-10,8.31,138.46,138.46,0,0,0-2.1,17.21c-.08,6.6,2.29,11.12,7,13.43,17.63,7.86,38.12,11.75,62.64,11.87a4.16,4.16,0,0,0,4-3.1c2.33-9.11,5.47-22.65,5.83-35.1a2.92,2.92,0,0,0-1.74-2.77c-16.73-7.52-52.57-10.09-65.63-9.89ZM24.42,102.74a2.92,2.92,0,0,0-1.74,2.77c.36,12.42,3.5,26,5.83,35.1a4.14,4.14,0,0,0,4,3.1c24.54-.12,45-4,62.69-11.88,4.72-2.3,7.08-6.83,7-13.45a136.07,136.07,0,0,0-2.11-17.19,9.9,9.9,0,0,0-10-8.31C82.48,92.76,43.36,94.3,24.42,102.74Z"/><path class="cls-6" d="M361.46,147.89a33.07,33.07,0,0,1-4.59,9.74,33.6,33.6,0,0,1-7.65,8,36.72,36.72,0,0,1-10.55,5.4,41.89,41.89,0,0,1-13.29,2,43.65,43.65,0,0,1-15.62-2.82,37.74,37.74,0,0,1-13-8.29,39.76,39.76,0,0,1-8.94-13.37,46,46,0,0,1-3.3-17.88,44.39,44.39,0,0,1,3.22-17.23,40.18,40.18,0,0,1,8.62-13.13,38.67,38.67,0,0,1,12.48-8.38,37.33,37.33,0,0,1,14.66-3q18.53,0,28.83,11T362.58,130c0,1.51-.05,2.93-.16,4.27s-.16,2.12-.16,2.33H305.57a17.21,17.21,0,0,0,1.85,7.17,20.09,20.09,0,0,0,4.35,5.72,19.68,19.68,0,0,0,6.2,3.79,20.83,20.83,0,0,0,7.57,1.37q7.57,0,11.84-3.38a19.19,19.19,0,0,0,6.2-8.7Zm-20-25.93a19.28,19.28,0,0,0-1.21-5.72,13.74,13.74,0,0,0-3.22-5,16.66,16.66,0,0,0-5.48-3.54,20.43,20.43,0,0,0-7.81-1.37,18,18,0,0,0-7.41,1.45,18.24,18.24,0,0,0-5.48,3.71,16.47,16.47,0,0,0-3.46,5A15.69,15.69,0,0,0,306,122Zm48.7,47.84a17.8,17.8,0,0,0,6,10.79q4.83,4.18,12.56,4.19,10.14,0,15.62-5.23t5.48-16.83v-5.8a21.86,21.86,0,0,1-7.89,7q-5.48,3.14-14.17,3.14a36.74,36.74,0,0,1-14.66-2.9,35.06,35.06,0,0,1-11.68-8A38,38,0,0,1,373.69,144a42.63,42.63,0,0,1-.08-30.28,39.63,39.63,0,0,1,7.57-12.32A35,35,0,0,1,392.74,93a35.85,35.85,0,0,1,15-3.06q9.5,0,15,3.38t7.57,7.41V91.36h20.61v70.7a52.53,52.53,0,0,1-2.34,15.7,35,35,0,0,1-20.21,22.39q-7.89,3.47-19,3.46a44.91,44.91,0,0,1-14.9-2.33A40,40,0,0,1,382.75,195a32.6,32.6,0,0,1-8.05-9.18A29.69,29.69,0,0,1,370.84,175Zm21.26-21.1a17.78,17.78,0,0,0,13.45-5.48q5.24-5.47,5.23-14.66T424.63,114a18.13,18.13,0,0,0-13.21-5.4,20.21,20.21,0,0,0-7.49,1.37,17,17,0,0,0-6,4,18.87,18.87,0,0,0-4,6.36,22.56,22.56,0,0,0-1.45,8.21q0,9.35,5.31,14.74a18.4,18.4,0,0,0,13.63,5.42Zm68.81,21.1a17.8,17.8,0,0,0,6,10.79q4.83,4.18,12.56,4.19,10.14,0,15.62-5.23t5.48-16.83v-5.8a21.86,21.86,0,0,1-7.89,7q-5.47,3.14-14.17,3.14a36.74,36.74,0,0,1-14.66-2.9,35.06,35.06,0,0,1-11.68-8A38,38,0,0,1,463.76,144a42.63,42.63,0,0,1-.08-30.28,39.63,39.63,0,0,1,7.57-12.32A35,35,0,0,1,482.8,93a35.85,35.85,0,0,1,15-3.06q9.49,0,15,3.38t7.57,7.41V91.36H541v70.7a52.53,52.53,0,0,1-2.34,15.7,35,35,0,0,1-20.21,22.39q-7.89,3.47-19,3.46a44.91,44.91,0,0,1-14.9-2.33A39.9,39.9,0,0,1,472.82,195a32.6,32.6,0,0,1-8.05-9.18A29.89,29.89,0,0,1,460.9,175Zm21.26-21.1a17.78,17.78,0,0,0,13.45-5.48q5.23-5.47,5.23-14.66T514.69,114a18.13,18.13,0,0,0-13.21-5.4A20.13,20.13,0,0,0,494,110a17,17,0,0,0-6,4,18.87,18.87,0,0,0-4,6.36,22.56,22.56,0,0,0-1.45,8.21q0,9.35,5.31,14.74a18.38,18.38,0,0,0,13.61,5.39Zm71.39,21.9H553.69V54h19.19V98a21.35,21.35,0,0,1,9.82-6.68,36.08,36.08,0,0,1,11.6-2,31.77,31.77,0,0,1,13.12,2.5,26,26,0,0,1,9.18,6.68,27,27,0,0,1,5.4,10,41.57,41.57,0,0,1,1.77,12.24V170.6H602.35V124.38a17.93,17.93,0,0,0-3.46-11.27q-3.46-4.52-11.19-4.51-6.76,0-10.63,4.43a17.55,17.55,0,0,0-4.19,11Zm136.7-22.71a33.07,33.07,0,0,1-4.59,9.74,33.6,33.6,0,0,1-7.65,8,36.72,36.72,0,0,1-10.55,5.4,41.89,41.89,0,0,1-13.29,2,43.65,43.65,0,0,1-15.62-2.82,37.74,37.74,0,0,1-13-8.29,39.76,39.76,0,0,1-8.94-13.37,46,46,0,0,1-3.3-17.88,44.39,44.39,0,0,1,3.22-17.23,40.18,40.18,0,0,1,8.62-13.13A38.67,38.67,0,0,1,657,91.93a37.33,37.33,0,0,1,14.66-3q18.52,0,28.83,11T710.71,130c0,1.51-.05,2.93-.16,4.27s-.16,2.12-.16,2.33h-56.7a17.21,17.21,0,0,0,1.85,7.17,20.09,20.09,0,0,0,4.35,5.72,19.68,19.68,0,0,0,6.2,3.79,20.83,20.83,0,0,0,7.57,1.37q7.58,0,11.84-3.38a19.19,19.19,0,0,0,6.2-8.7Zm-20-25.89a19.28,19.28,0,0,0-1.21-5.72,13.74,13.74,0,0,0-3.22-5,16.66,16.66,0,0,0-5.48-3.54,20.43,20.43,0,0,0-7.81-1.37,18,18,0,0,0-7.41,1.45A18.23,18.23,0,0,0,659,111.5a16.47,16.47,0,0,0-3.46,5,16,16,0,0,0-1.37,5.47Zm28.21,27a21.94,21.94,0,0,1,6.92-16.59,24.25,24.25,0,0,1,7.49-4.83,41.36,41.36,0,0,1,9.26-2.58L761,122.1q3.38-.48,4.67-2a5.41,5.41,0,0,0,1.29-3.63,9.56,9.56,0,0,0-3.3-7.25q-3.3-3.06-10.07-3.06-7.1,0-10.87,3.86a14.53,14.53,0,0,0-4.27,9l-19-4a26,26,0,0,1,2.9-9.34,28.89,28.89,0,0,1,6.6-8.38,33.35,33.35,0,0,1,10.31-6A39.52,39.52,0,0,1,753.41,89a45.25,45.25,0,0,1,15.94,2.5A29.69,29.69,0,0,1,780.07,98a24.39,24.39,0,0,1,6,9.58A35.22,35.22,0,0,1,787.92,119v39q0,3.23.32,6.84t.65,5.72H769.2a44,44,0,0,1-.56-4.43q-.24-2.82-.24-5.07a27.56,27.56,0,0,1-8.78,8.21q-5.72,3.54-14.57,3.54a30.62,30.62,0,0,1-11.36-2,27.23,27.23,0,0,1-8.62-5.31A22.43,22.43,0,0,1,717.82,149Zm31.73,7.89a24,24,0,0,0,6.52-.88,13.7,13.7,0,0,0,5.56-3.06,15.53,15.53,0,0,0,3.86-5.64,22.87,22.87,0,0,0,1.45-8.78V135l-17.88,2.74a14.18,14.18,0,0,0-7,3c-1.88,1.55-2.82,3.89-2.82,7a9.21,9.21,0,0,0,2.58,6.36q2.56,2.81,7.73,2.81ZM878,156.27c0,2.67,0,5.33.16,8s.27,4.79.48,6.36H858.24a27.83,27.83,0,0,1-.56-3.86c-.16-1.72-.24-3.49-.24-5.32a22,22,0,0,1-8.46,7.89,27.62,27.62,0,0,1-13.77,3.22,38.3,38.3,0,0,1-15.62-3.14,36,36,0,0,1-12.16-8.7,40.82,40.82,0,0,1-8-13.21,48.93,48.93,0,0,1-.08-32.93,40.61,40.61,0,0,1,7.81-13.13,38.15,38.15,0,0,1,36.32-11A29.66,29.66,0,0,1,850,92.82,18.38,18.38,0,0,1,854.45,96a12.78,12.78,0,0,1,2.5,3.3V54H878ZM818.1,130.82q0,10.63,5.56,16.59A19.35,19.35,0,0,0,851,148q.3-.28.57-.57,5.64-6,5.64-16.75t-5.64-16.35a19.62,19.62,0,0,0-27.77.08h0q-5.69,5.81-5.69,16.43ZM889,162.28a8,8,0,0,1,2.35-5.81,7.74,7.74,0,0,1,5.76-2.41,8.22,8.22,0,0,1,8.22,8.22,7.74,7.74,0,0,1-2.41,5.76A8.18,8.18,0,0,1,889,162.49v-.2ZM916,75.91A11.69,11.69,0,1,1,927.64,87.6,11.69,11.69,0,0,1,916,75.91Zm1.86,94.6V95.72h19.66V170.5ZM947.72,133c0-21.21,14.86-39.17,39.48-39.17s39.63,18,39.63,39.17S1012,172.33,987.2,172.33,947.72,154.25,947.72,133Zm58.68,0c0-11.61-6.81-21.68-19.2-21.68-12.23,0-19,10.06-19,21.68,0,11.77,6.81,21.83,19,21.83C999.58,154.87,1006.4,144.8,1006.4,133Z"/></svg>