<svg xmlns="http://www.w3.org/2000/svg" id="Layer_1" data-name="Layer 1" viewBox="0 0 1157.48 316.96">
  <defs>
    <style>
      .cls-1{fill:#202448}.cls-1,.cls-4{stroke:#ff3}.cls-1,.cls-5{stroke-width:8px}.cls-4{fill:#20244a}.cls-5{stroke:#fc3}.cls-4{stroke-width:7px}.cls-5,.cls-7{fill:#fc3}
    </style>
  </defs>
  <path d="M718.56 261.17s-1.89-10.6-15.7-12.06c-16.77-1.76-27.45 7.25-27.45 7.25L669.05 270l-142.28 21.51-136.88 21s-19 3.32-30-7.89S285.25 231 285.25 231l-45.14-52.26L223 150.47s1.45-2.64 14.3-4.16 69-6.78 69-6.78 1.94 5.21 8.12 16.49c3.15 5.73 13.2 15.16 21.58 17 8.68 1.9 12.44 3.39 25.1 1.19 0 0 12.61-1.09 28-16.67 10-10.13 9.31-20.07 9.24-24.11-.08-4.52 4.53-1 4.53-1s13.58-2.84 26.44-4.37 102.92-12.65 109-14c5.21-1.14 42.51-7.57 42.51-7.57s2.49 11.1 7 15.32 15.64 8 21 7.54 13.1-2 19.36-7.11 6-17.28 6-17.28 21.89-8.59 28.62-8.33 18 4.74 18 4.74l57.3 86.4 34.92 55.24-3.75 10Z" class="cls-1"/>
  <path fill="#20244a" stroke="#fc3" stroke-width="7" d="M186.51 164.09s115.67 83 122 81.48 49.76-70.52 49.76-70.52l-.58-6.15a21.44 21.44 0 0 1-6.56-13.9c-.36-7.09 5.42-18.19 5.42-18.19 2.78-3.37 6.95-8.43 19.44-14 3.39-1.51 18-25.92 18-25.92l5.22-18.64-72.65-6.45s-4.48 11.6-10.5 16.82-12.57 10.73-19.5 13.38c-6.58 2.5-9.32 3.07-24.36-2-14.55-4.89-23.53-22.83-24.89-27.34a31.31 31.31 0 0 1-1.37-7.93l-160-8.06s-.69 5.95-8.56 11.06c-7.3 4.73-24.45 2.48-32-3.73-1.68-1.38-5.24-12.82-5.24-12.82L15 50.83 2 48.05s119 85.19 124.31 79.4c5.62-6.09 14.49-12.83 30.91-10.73 13.8 1.76 18.74 8.1 23 11.09 3.77 2.62 9.3 15.18 8.79 20.85a84.61 84.61 0 0 1-2.5 15.43Z"/>
  <path fill="#202449" stroke="#fc3" stroke-width="8" d="M922.27 203.08s170.67 59.32 177.94 55 36.57-106.64 36.57-106.64l-2.84-7.42a26.85 26.85 0 0 1-12.94-14.84c-2.89-8.69.34-24.69.34-24.69 2.24-5.24 5.61-13.12 19-24.77 3.63-3.16 13.1-39.08 13.1-39.08l-.06-25.17-91.36 19.59s-1.49 16.13-7 24.92-11.71 18.11-19.29 24c-7.22 5.61-10.37 7.37-30.56 6.8-19.55-.55-36.79-19.45-40-24.55a39.46 39.46 0 0 1-4.42-9.35L761.6 107.7s1.22 7.67-6.66 17c-7.32 8.66-29.13 12.37-40.5 7.51-2.54-1.09-10.87-14-10.87-14l-31 9.11-16.86 1.48s175.47 60.75 180 51.52c4.78-9.72 13.32-21.47 34.18-25.11 17.54-3 25.8 3 32.12 5.05 5.53 1.83 16.67 15.35 18 22.59 2.41 12.85 2.26 20.23 2.26 20.23Z"/>
  <path d="M251.44 110.91s-2.16 4.52-8.53 3.47a18 18 0 0 1-11.42-6.64l-1.17-6.92-61.19-27.16-58.82-26.3s-8.11-3.82-14.43-.16S53.32 71 53.32 71L26.63 88.91 15.47 99.48s.33 1.37 5.91 3.64 30.11 11.54 30.11 11.54a66.84 66.84 0 0 1 5.67-6.39c2.12-2.19 7.79-5.18 11.78-5s6 0 11.4 2.56c0 0 5.53 2 10.53 10.93a14 14 0 0 1 1.17 12c-.59 2 1.91 1 1.91 1s5.75 3 11.33 5.22 44.61 18.37 47.17 19.71c2.19 1.16 18.13 8.64 18.13 8.64s2.49-4.68 5-6 8-1.66 10.37-.79a16.35 16.35 0 0 1 7.81 5.58c2.17 3.08.59 8.49.59 8.49s8.76 6.56 11.81 7.27 8.66.09 8.66.09l36.35-31.7 22.48-20.47-.46-4.93Z" class="cls-4"/>
  <path d="M97 191.87s-75.2 12.65-77.9 10.41-7.25-45.54-7.25-45.54l1.72-2.81a11.5 11.5 0 0 0 6.43-5.14c1.85-3.32 1.7-10 1.7-10-.55-2.27-1.36-5.68-6.05-11.27-1.28-1.53-2.54-16.68-2.54-16.68L15 100.67l36.45 14s-.59 6.62 1.07 10.54 3.51 8.1 6.22 11S62.53 139.86 71 141c8.15 1.08 16.7-5.42 18.42-7.27a16.43 16.43 0 0 0 2.53-3.49l78.8 33.76s-1.08 3 1.5 7.32c2.39 4 11.17 6.93 16.24 5.72 1.14-.27 5.55-4.92 5.55-4.92l12.17 5.74 6.88 1.72s-77.31 12.91-78.51 8.88c-1.26-4.25-3.93-9.57-12.32-12.43-7.05-2.39-10.92-.52-13.7-.09-2.43.37-8 5.1-9.14 7.94a44.74 44.74 0 0 0-2.42 7.99Z" class="cls-5"/>
  <path fill="#202449" stroke="#fc3" stroke-width="7" d="M122.93 71.08a10.77 10.77 0 0 0-5.78-7 15.48 15.48 0 0 0-18.79 4.48 10.36 10.36 0 0 0 3.79 15.9A15.48 15.48 0 0 0 120.94 80a10.68 10.68 0 0 0 1.99-8.92Z"/>
  <path d="M170.63 107.13c-.81-3.43-3.65-6.23-7.86-7.8a27.54 27.54 0 0 0-27.46 6.55c-3.06 3.29-4.32 7.08-3.5 10.51s3.64 6.23 7.86 7.8a27.55 27.55 0 0 0 27.46-6.55c3.06-3.3 4.32-7.08 3.5-10.51Z" class="cls-7"/>
  <path fill="none" stroke="#fc3" stroke-width="6" d="M170.63 107.13c-.81-3.43-3.65-6.23-7.86-7.8a27.54 27.54 0 0 0-27.46 6.55c-3.06 3.29-4.32 7.08-3.5 10.51s3.64 6.23 7.86 7.8a27.55 27.55 0 0 0 27.46-6.55c3.06-3.3 4.32-7.08 3.5-10.51"/>
  <path d="M966.41 31.25s-1.53 4.77 3.82 8.38a18 18 0 0 0 12.87 3l5.6-4.23 63.15 22.21 60.83 21.23s8.53 2.78 10.61 9.78 14.62 46.53 14.62 46.53l7.15 31.32.86 15.36s-1.17.76-6.79-1.42-29.82-12.25-29.82-12.25a65.22 65.22 0 0 0 .26-8.55c0-3-2.12-9.11-5.16-11.69s-4.37-4.11-10.05-6c0 0-5.43-2.31-15.16.73a14 14 0 0 0-9.06 7.89c-1 1.88-2.06-.59-2.06-.59s-6.21-1.8-11.83-4-45-17.25-47.84-18c-2.39-.66-19.11-6.16-19.11-6.16s1.4-5.1.44-7.83-4.68-6.7-7-7.69a16.23 16.23 0 0 0-9.51-1.29c-3.69.74-6.25 5.78-6.25 5.78s-10.87-1.25-13.58-2.83-6.37-5.87-6.37-5.87l-4.69-48L940 26.79l3.71-3.28Z" class="cls-1"/>
  <path d="M1023.22 196.11s46 60.81 49.54 61 36.52-28.11 36.52-28.11l.67-3.23a11.55 11.55 0 0 1-1.17-8.17c.94-3.68 5.63-8.44 5.63-8.44 1.95-1.28 4.88-3.2 12.13-4 2-.23 13.29-10.39 13.29-10.39l5.6-8.7-36.12-14.83s-4.12 5.21-8 6.93-8.11 3.48-12.07 3.73c-3.76.23-5.24.09-12.13-4.88-6.67-4.81-8.44-15.4-8.42-17.93a16.65 16.65 0 0 1 .55-4.27l-80.52-29.52s-1.29 2.93-6.12 4.29c-4.47 1.26-12.88-2.61-15.74-7-.64-1-.66-7.38-.66-7.38L953.4 111l-6.19-3.47s47.39 62.43 51 60.32c3.83-2.22 9.42-4.26 17.48-.58 6.78 3.09 8.31 7.11 10 9.33 1.51 1.93 2.36 9.23 1.2 12a45.17 45.17 0 0 1-3.67 7.51Z" class="cls-5"/>
  <path d="M1094.41 86.05a10.73 10.73 0 0 1 9-1.14 15.48 15.48 0 0 1 10.59 16.15 10.34 10.34 0 0 1-13.66 9 15.46 15.46 0 0 1-10.59-16.14 10.73 10.73 0 0 1 4.66-7.87ZM1024.09 83.7c3-1.94 6.94-2 11.07-.28a27.47 27.47 0 0 1 15.49 23.6c0 4.5-1.71 8.12-4.66 10s-6.93 2-11.07.28a27.55 27.55 0 0 1-15.49-23.6c.04-4.45 1.71-8.06 4.66-10Z" class="cls-7"/>
  <path d="M510.21 30.46s-4.9-1-7.93 4.69a18 18 0 0 0-1.63 13.11l4.8 5.12L490 118.53l-14.68 62.73s-1.86 8.77-8.61 11.59S422 212.29 422 212.29l-30.4 10.43-15.17 2.47s-.89-1.08.68-6.9 9.05-30.95 9.05-30.95a67.13 67.13 0 0 0 8.52-.64c3-.37 8.83-3.07 11.08-6.37s3.63-4.78 4.87-10.63c0 0 1.72-5.63-2.33-15a13.92 13.92 0 0 0-8.81-8.17c-2-.75.38-2.12.38-2.12s1.13-6.36 2.7-12.17S415 85.61 415.46 82.77c.41-2.45 4.1-19.67 4.1-19.67s5.23.85 7.84-.38 6.17-5.36 6.91-7.78a16.35 16.35 0 0 0 .28-9.59c-1.13-3.59-6.4-5.61-6.4-5.61s.08-10.93 1.36-13.79 5.17-6.95 5.17-6.95L482 9.25l29.91-5.49 3.65 3.35Z" class="cls-4"/>
  <path fill="#fc3" stroke="#fc3" stroke-width="6" d="M352.28 104.36s-55.6 52.21-55.45 55.71 31.85 33.35 31.85 33.35l3.29.32a11.43 11.43 0 0 1 8-2c3.77.54 9 4.7 9 4.7 1.48 1.8 3.7 4.52 5.32 11.64.41 1.92 11.71 12.09 11.71 12.09l9.24 4.65 10.94-37.48s-5.62-3.54-7.74-7.24-4.33-7.69-5-11.6c-.63-3.71-.65-5.21 3.57-12.58 4.08-7.14 14.43-10 16.94-10.27a16.28 16.28 0 0 1 4.3.1l20.86-83.19s-3.05-1-4.91-5.63c-1.73-4.32 1.23-13.08 5.27-16.39.9-.74 7.28-1.44 7.28-1.44l2.8-13.1 2.81-6.53s-57.08 53.72-54.6 57.12c2.62 3.58 5.23 8.92 2.43 17.32-2.36 7.07-6.2 9-8.22 11-1.77 1.7-8.94 3.32-11.85 2.47a45.3 45.3 0 0 1-7.84-3.02Z"/>
  <path d="M465.05 162.07a10.69 10.69 0 0 1 2.09 8.85 15.45 15.45 0 0 1-14.94 12.24 10.33 10.33 0 0 1-10.35-12.63 15.45 15.45 0 0 1 14.93-12.25 10.71 10.71 0 0 1 8.27 3.79ZM464.3 97.07c2.23 2.72 2.75 6.68 1.44 11a27.52 27.52 0 0 1-21.83 17.89c-4.48.44-8.25-.84-10.49-3.57s-2.75-6.68-1.44-11a27.52 27.52 0 0 1 21.83-17.89c4.48-.45 8.25.84 10.49 3.57Z" class="cls-7"/>
  <path fill="#20244a" stroke="#c90" stroke-width="6" d="M408.44 150.7a19.48 19.48 0 0 1 3.79 7.46 21.44 21.44 0 0 1 .43 8.61 23.94 23.94 0 0 1-3 8.44 25.89 25.89 0 0 1-14 11.46 24 24 0 0 1-8.86 1.29 21.51 21.51 0 0 1-8.36-2.12 19.47 19.47 0 0 1-10.36-12.64 21.4 21.4 0 0 1-.43-8.6 23.92 23.92 0 0 1 3-8.45 25.89 25.89 0 0 1 14-11.46 24 24 0 0 1 8.86-1.29 21.51 21.51 0 0 1 8.36 2.12 19.58 19.58 0 0 1 6.57 5.18Z"/>
  <path d="M628.67 175s4.65 1.87 8.63-3.21a18 18 0 0 0 3.91-12.62l-3.83-5.89L664 91.88l25.5-59.17s3.38-8.31 10.52-9.89 47.44-11.28 47.44-11.28l31.75-4.92 15.38.23s.68 1.22-1.89 6.67-14.34 28.88-14.34 28.88a67.29 67.29 0 0 0-8.51-.86c-3-.17-9.23 1.47-12 4.32s-4.41 4.07-6.67 9.6c0 0-2.68 5.25-.34 15.18a14 14 0 0 0 7.23 9.59c1.8 1.08-.74 2-.74 2s-2.23 6-4.8 11.5-20.39 43.73-21.37 46.45c-.83 2.34-7.49 18.63-7.49 18.63s-5-1.75-7.78-1-7 4.19-8.17 6.44a16.3 16.3 0 0 0-2 9.39c.49 3.74 5.32 6.65 5.32 6.65s-2 10.75-3.77 13.34-6.31 5.94-6.31 5.94l-48.22 1.29-30.41.14-3-3.93Z" class="cls-1"/>
  <path d="M797.14 130s63.91-41.57 64.38-45S836 46.53 836 46.53l-3.17-.9a11.5 11.5 0 0 1-8.23.59c-3.6-1.22-8-6.22-8-6.22-1.14-2-2.85-5.1-3.18-12.4-.1-2-9.43-14-9.43-14l-8.28-6.2-17.35 35s4.9 4.48 6.35 8.49 2.89 8.33 2.86 12.3c0 3.76-.28 5.24-5.72 11.76-5.28 6.31-16 7.32-18.48 7.12a16.81 16.81 0 0 1-4.23-.85L724 159.44s2.83 1.5 3.85 6.41c.94 4.55-3.53 12.66-8.08 15.21-1 .57-7.42.13-7.42.13l-5.06 12.46-3.91 5.93S769 156.74 767.16 153c-1.94-4-3.58-9.7.66-17.48 3.56-6.55 7.68-7.78 10-9.35 2-1.37 9.39-1.7 12.11-.35a45.86 45.86 0 0 1 7.21 4.18Z" class="cls-5"/>
  <path fill="#c90" d="M819.65 84.69a8.65 8.65 0 0 1-.31-7.49 13.44 13.44 0 0 1 14.26-8 8.29 8.29 0 0 1 6.53 11.66 13.43 13.43 0 0 1-14.26 8 8.69 8.69 0 0 1-6.22-4.17Z"/>
  <path fill="#fc3" stroke="#000" d="M696.26 53.42a10.76 10.76 0 0 1-.49-9.09 15.44 15.44 0 0 1 16.86-9.42 10.35 10.35 0 0 1 8 14.26 15.48 15.48 0 0 1-16.86 9.42 10.75 10.75 0 0 1-7.51-5.17Z"/>
  <path d="M685.58 117.53c-1.72-3.07-1.54-7 .51-11.06a27.49 27.49 0 0 1 24.64-13.77c4.48.35 8 2.28 9.69 5.36s1.54 7.06-.51 11.06a27.46 27.46 0 0 1-24.64 13.77c-4.48-.34-7.97-2.28-9.69-5.36Z" class="cls-7"/>
  <path fill="none" stroke="#000" d="M685.58 117.53c-1.72-3.07-1.54-7 .51-11.06a27.49 27.49 0 0 1 24.64-13.77c4.48.35 8 2.28 9.69 5.36s1.54 7.06-.51 11.06a27.46 27.46 0 0 1-24.64 13.77c-4.48-.34-8-2.28-9.69-5.36"/>
</svg>
