<svg id="Layer_1" data-name="Layer 1" xmlns="http://www.w3.org/2000/svg" viewBox="0 0 210.81 144.24"><defs><style>.cls-1{fill:#e73900;}</style></defs><path class="cls-1" d="M191.7,48.9l-4.9-.9h0Zm5.9,78.9,3.9,3.2h0Zm-38.7.7-4.7,1.8h0Zm-1.3-75.1,3.6-3.4h0Zm-30.3,25-5,.6v-.2ZM98.4,101.5l-3.5,3.6h0ZM87.2,58.8l-4.9-1,.1-.2.1-.2ZM81.3,38.2l.5-5h0ZM54.1,61.4,49.3,60h0ZM22,55.7l5-.5h0ZM205,4.4c-.3,7.6-1.8,15.1-3.4,22.5-1.7,7.6-3.6,14.9-4.9,22.9l-9.9-1.7c1.4-8.3,3.4-16.2,5-23.4A124.26,124.26,0,0,0,195,4Zm-8.4,45.4c-.9,5.3.1,10.7,2.1,16.8q1.5,4.5,3.6,9.3c1.3,3.2,2.7,6.5,4,9.8,2.5,6.7,4.7,14,4.5,21.7-.2,7.9-2.9,15.8-9.3,23.7l-7.8-6.3c5.1-6.3,6.9-12.1,7.1-17.6.2-5.7-1.4-11.6-3.8-17.9-1.2-3.1-2.5-6.3-3.9-9.5s-2.7-6.6-3.8-9.9c-2.3-6.7-3.8-14-2.5-21.7Zm4.8,81.2a36.12,36.12,0,0,1-24.9,13.2c-9.2.5-18.5-3.6-22.4-13.9l9.4-3.5c2,5.4,6.6,7.8,12.5,7.5a25.78,25.78,0,0,0,17.7-9.5Zm-47.2-.8c-5.9-15.7-1.7-31.8,1.2-44.6,1.5-6.7,2.7-12.4,2.7-17.3s-1.2-8.4-4.1-11.5l7.2-6.9c5.1,5.4,6.8,11.8,6.8,18.3,0,6.3-1.4,13.1-2.9,19.6-3.1,13.6-6.2,26.5-1.6,38.8ZM154,56.9a6.78,6.78,0,0,0-5.9-2.4,13.75,13.75,0,0,0-7.3,4c-5.3,5-9,13-8.4,19.6l-10,.8c-.8-10.2,4.5-21.1,11.6-27.7a23.27,23.27,0,0,1,12.9-6.6A16.68,16.68,0,0,1,161.2,50ZM132.3,77.8c1.6,12.6-1.7,24.3-9,30.5a17.69,17.69,0,0,1-13.7,4.4c-5.1-.5-10.1-3.2-14.7-7.7l7-7.1c3.4,3.4,6.4,4.6,8.7,4.9a8,8,0,0,0,6.1-2c3.9-3.4,7-11.1,5.6-21.7ZM94.9,105c-5.4-5.3-9.3-13.2-11.5-21.5a57.4,57.4,0,0,1-1.1-25.7l9.8,2.1a47.57,47.57,0,0,0,1,21.1c1.9,7.2,5.1,13.3,8.8,16.9ZM82.5,57.3c1.8-5.5,2.2-9.4,1.8-11.6a2.94,2.94,0,0,0-.8-1.7,4.56,4.56,0,0,0-2.7-.9l1.1-9.9A13.94,13.94,0,0,1,90,36.5a12.63,12.63,0,0,1,4.1,7.1c1.1,5-.2,11-2,16.7ZM80.8,43.2c-8-.8-12,1-14.6,3.6-3,3-5,8.1-7.3,15.9l-9.6-2.8c2.2-7.8,4.8-15.1,9.8-20.2,5.4-5.4,12.7-7.5,22.6-6.6ZM59,62.7a16.25,16.25,0,0,1-9.8,11,22.59,22.59,0,0,1-13.6.5,28.14,28.14,0,0,1-12-6.2A18.45,18.45,0,0,1,17,56.2l10-1a9,9,0,0,0,3.2,5.3,19.31,19.31,0,0,0,7.8,4,13.37,13.37,0,0,0,7.5-.1A6.15,6.15,0,0,0,49.3,60ZM17,56.2a122.94,122.94,0,0,1-.3-15.8,76,76,0,0,0-.3-12,19.29,19.29,0,0,0-4-9.5C10,15.7,6.2,12.3,0,8.6L5.1,0c7,4.2,11.9,8.4,15.3,12.9a31.52,31.52,0,0,1,5.9,14,71.82,71.82,0,0,1,.4,13.9,118.47,118.47,0,0,0,.2,14.5Z"/></svg>